<?xml version="1.0" encoding="iso-8859-1"?>
<!-- Uploaded to: SVG Repo, www.svgrepo.com, Generator: SVG Repo Mixer Tools -->
<svg fill="#000000" height="800px" width="800px" version="1.1" id="Layer_1" xmlns="http://www.w3.org/2000/svg" xmlns:xlink="http://www.w3.org/1999/xlink" 
	 viewBox="0 0 512 512" xml:space="preserve">
<g>
	<g>
		<g>
			<polygon points="110.933,300.875 187.87,255.998 110.933,211.122 			"/>
			<path d="M256,0C114.842,0,0,114.842,0,256s114.842,256,256,256s256-114.842,256-256S397.158,0,256,0z M209.101,263.373
				l-102.4,59.733c-1.323,0.768-2.816,1.161-4.301,1.161c-1.468,0-2.935-0.375-4.25-1.135c-2.654-1.527-4.284-4.344-4.284-7.398
				V196.267c0-3.055,1.63-5.871,4.284-7.398c2.645-1.527,5.914-1.502,8.55,0.026l102.4,59.733c2.628,1.527,4.233,4.344,4.233,7.373
				C213.333,259.029,211.729,261.845,209.101,263.373z M297.54,200.499l-68.267,119.467c-1.57,2.756-4.446,4.301-7.415,4.301
				c-1.434,0-2.893-0.358-4.224-1.126c-4.096-2.338-5.521-7.552-3.174-11.639l68.267-119.467c2.33-4.096,7.543-5.547,11.639-3.174
				C298.462,191.198,299.887,196.412,297.54,200.499z M341.333,315.733c0,4.719-3.814,8.533-8.533,8.533
				c-4.719,0-8.533-3.814-8.533-8.533V196.267c0-4.719,3.814-8.533,8.533-8.533c4.719,0,8.533,3.814,8.533,8.533V315.733z
				 M392.533,315.733c0,4.719-3.814,8.533-8.533,8.533c-4.719,0-8.533-3.814-8.533-8.533V196.267c0-4.719,3.814-8.533,8.533-8.533
				c4.719,0,8.533,3.814,8.533,8.533V315.733z"/>
		</g>
	</g>
</g>
</svg>